<?xml version="1.0" encoding="utf-8"?>
<!-- Generator: Adobe Illustrator 19.2.1, SVG Export Plug-In . SVG Version: 6.00 Build 0)  -->
<svg version="1.1" id="Layer_1" xmlns="http://www.w3.org/2000/svg" xmlns:xlink="http://www.w3.org/1999/xlink" x="0px" y="0px"
	 viewBox="0 0 609.2 150.6" style="enable-background:new 0 0 609.2 150.6;" xml:space="preserve">
<style type="text/css">
	.st0{fill-rule:evenodd;clip-rule:evenodd;fill:#FFAE00;}
	.st1{fill:#575757;}
	.st2{fill-rule:evenodd;clip-rule:evenodd;fill:#575757;}
	.st3{fill-rule:evenodd;clip-rule:evenodd;fill:#FFAA00;}
</style>
<g>
	<path class="st0" d="M385,39.6c-5.1-3.5-13.2-5.3-24.4-5.3l-17.4-0.1l-17.7-0.3h-2.7c-3.8,0-6.8-0.5-9-1.5c-2.2-1-3.3-3.1-3.3-6.3
		c0-2.3,0.9-4,2.8-5c1.9-1,4.1-1.5,6.8-1.5l20.2-0.6l12.7,0.1c3.2,0,5.7,0.6,7.5,1.8c1.8,1.2,2.7,3.3,2.7,6.4H389
		c0-4.4-0.3-7.9-0.8-10.4c-0.5-2.5-1.7-5.3-3.6-8.5c-1.9-3.1-5.1-5.3-9.6-6.4c-4.5-1.2-10.4-1.8-17.8-1.8L338.8,0
		c-3.1,0-9.2,0.1-18.3,0.4c-9.1,0.3-16.4,1.1-22,2.5c-5.6,1.4-9.4,4.1-11.6,8.1c-2.1,4-3.2,9.6-3.2,16.8c0,8.5,1.7,14.8,5,18.9
		c3.3,4.1,9.1,6.2,17.2,6.2l43.4,0.9h4.3c4.8,0,8,0.7,9.7,2.1c1.7,1.4,2.5,3.3,2.5,5.6c0,2.6-0.7,4.5-2.2,5.7
		c-1.5,1.2-4.6,1.8-9.5,1.8l-17.7,0.5l-12.5-0.1c-4.2,0-7.6-0.5-9.9-1.4c-2.4-0.9-3.6-3.1-3.6-6.7l-0.1-1.4h-26v5.2
		c0,9.2,2.2,15.3,6.6,18.3c4.4,3,11.3,4.6,20.7,4.6l17.7,0.4l33.8-0.9c10.5,0,18-1.9,22.6-5.7c4.6-3.8,6.8-10.8,6.8-21.1
		C392.6,50.1,390.1,43.1,385,39.6z M582.7,1v49.1c0,6.8-1,11.4-3.1,13.7c-2,2.3-6.7,3.4-13.8,3.4l-10.9,0.1L543,67.2
		c-8.4,0-13.7-1.3-15.7-3.9c-2.1-2.6-3.1-8.2-3.1-16.9V1h-26.4v53.2c0,10.6,1.9,18.3,5.6,23.3c3.7,4.9,8.6,8,14.7,9.2
		c6.1,1.2,14.8,1.8,26.3,1.8l21.6,0.1c14.7,0,25.6-2.1,32.7-6.4c7.1-4.3,10.6-13.2,10.6-26.7V1H582.7z"/>
	<path class="st1" d="M343.8,113.8c-2.5-1.9-7.2-2.9-14.1-2.9c-6.4,0-10.7,0.8-12.8,2.3c-2.2,1.6-3.2,4.7-3.2,9.3h9.5
		c0-3.6,2.4-5.4,7.1-5.4c3.3,0,5.4,0.5,6.5,1.5c1.1,1,1.6,3,1.6,6v6.3h-0.2c-1.4-2.9-5.3-4.4-11.7-4.4c-9.6,0-14.4,4-14.4,12.1
		c0,8,4.7,11.9,14.1,11.9c6.5,0,10.6-1.9,12.4-5.8l0.2,0l-0.4,5.3h9.3v-25.3C347.5,119.4,346.3,115.7,343.8,113.8z M329.9,144.3
		c-3.5,0-5.7-0.4-6.8-1.2c-1.1-0.8-1.6-2.4-1.6-4.9c0-3.6,2.6-5.4,7.9-5.4c6,0,9,1.9,9,5.8C338.3,142.4,335.5,144.3,329.9,144.3z
		 M383.5,129.2c-2-1.4-6.3-2.3-12.9-2.6c-4.9-0.2-7.8-0.6-8.6-1c-0.9-0.4-1.3-1.7-1.3-3.8c0-3.1,2.4-4.7,7.3-4.7
		c3.4,0,5.5,0.2,6.4,0.7c0.9,0.5,1.4,1.6,1.6,3.5c0,0.2,0.1,0.4,0.1,0.7h9.1c0-4.4-1.1-7.4-3.3-8.9c-2.2-1.5-6.6-2.3-13-2.3
		c-6.8,0-11.4,0.8-13.9,2.3c-2.4,1.6-3.6,4.6-3.6,9c0,4.9,1.3,8.2,3.9,9.8c2.6,1.6,8.1,2.3,16.4,2.3c3.7,0,5.5,1.6,5.5,4.9
		c0,3.4-2.9,5.1-8.8,5.1c-5.7,0-8.3-1.7-7.9-5.1c0-0.3,0.1-0.8,0.2-1.3H351v1c0,4.5,1.2,7.6,3.6,9.2c2.4,1.6,7,2.5,13.6,2.5
		c6.9,0,11.7-0.9,14.3-2.7c2.7-1.8,4-5.1,4-9.8C386.5,133.6,385.5,130.7,383.5,129.2z M451.5,141.8c-0.9,1-3,1.4-6.1,1.4
		c-4.1,0-6.6-0.7-7.6-2.1c-1-1.4-1.6-4.8-1.6-10.2c0-5.6,0.5-9.1,1.4-10.5c0.9-1.4,3.3-2.1,7-2.1c5.2,0,7.8,2.3,7.8,6.8h9.2
		c0-5.5-1.2-9.2-3.6-11.2c-2.4-2-6.9-2.9-13.6-2.9c-6.9,0-11.6,1.4-14,4.1c-2.4,2.7-3.6,7.9-3.6,15.7c0,8,1.2,13.3,3.6,15.9
		c2.4,2.6,7.2,3.9,14.5,3.9c9.9,0,15.5-2.7,16.6-8l0.6-5.9v-1.3h-9.2C452.9,138.7,452.4,140.8,451.5,141.8z M482.9,110.9
		c-7.7,0-12.7,1.2-15,3.6c-2.3,2.4-3.4,7.7-3.4,15.8c0,8.5,1.2,13.9,3.5,16.4c2.3,2.5,7.5,3.7,15.4,3.7c7.3,0,12.1-1.3,14.3-4
		c2.3-2.7,3.4-8.3,3.4-16.9c0-7.7-1.2-12.7-3.5-15.1C495.3,112.1,490.4,110.9,482.9,110.9z M490.2,140.9c-1,1.5-3.4,2.3-7.3,2.3
		c-4,0-6.5-0.7-7.5-2.2c-1-1.5-1.5-5.1-1.5-10.9c0-5.1,0.5-8.3,1.6-9.7c1.1-1.4,3.5-2.1,7.4-2.1c3.8,0,6.2,0.7,7.3,2.1
		c1.1,1.4,1.6,4.5,1.6,9.5C491.7,135.7,491.2,139.4,490.2,140.9z M530.5,116.9l-0.2,0c-1.6-4-5.5-6-11.8-6c-5.5,0-9.2,1.3-11.4,4
		c-2.1,2.7-3.2,7.5-3.2,14.4c0,8.6,1,14.2,3,17c2,2.8,6,4.2,12.2,4.2c6.1,0,10-2.3,11.8-6.8l0.2,0l-0.3,6.2h9V94.8h-9.3V116.9z
		 M528.9,140.9c-1,1.6-3.4,2.4-7.1,2.4c-3.6,0-5.9-0.8-6.9-2.4c-1-1.6-1.5-5.2-1.5-10.9c0-4.9,0.5-8,1.5-9.5c1-1.5,3.3-2.2,6.7-2.2
		c3.6,0,6,0.7,7.1,2.2c1.1,1.5,1.7,4.6,1.7,9.4C530.5,135.6,530,139.3,528.9,140.9z M579.4,132.4v-2.8c0-7.4-1.2-12.4-3.5-14.9
		c-2.3-2.5-7-3.8-13.9-3.8c-7.2,0-12.1,1.3-14.5,3.9c-2.5,2.6-3.7,7.7-3.7,15.2c0,8.5,1.2,14,3.6,16.6c2.4,2.6,7.4,3.9,15.1,3.9
		c11.3,0,17-3.8,17-11.3v-1.5h-9.3c0,2.5-0.5,4.1-1.5,4.8c-1,0.7-3.2,1.1-6.6,1.1c-3.5,0-5.9-0.6-7-1.9c-1.2-1.3-1.8-3.8-1.8-7.6
		c0-0.3,0-0.8,0.1-1.7H579.4z M554.8,119.5c1-1.1,3.3-1.7,6.7-1.7c3.6,0,5.9,0.5,6.9,1.4c1.1,0.9,1.6,2.9,1.6,6l0,1.5h-16.9
		C553.3,123,553.8,120.6,554.8,119.5z"/>
	<path class="st2" d="M594.3,111.7h-13.8l13.4,19.4l-13.4,19.4h13.8l13.4-19.4L594.3,111.7z M297.4,111.7L284,131l13.4,19.4h13.8
		L297.8,131l13.4-19.4H297.4z"/>
	<path class="st0" d="M413.8,112h12.9l-26.3,38.5h-13.9L413.8,112z"/>
	<path class="st3" d="M104.1,2.2H51.3L0,76.3h52.8L104.1,2.2z M205.8,76.3l-51.3,74.1h52.8l51.3-74.1H205.8z M153.8,2.2L52.8,150.4
		h52.8L206.6,2.2H153.8z"/>
	<path class="st2" d="M0,76.3l46.7,67.6l26.2-38.5L52.8,76.3H0z M212.3,9.3l-26.2,38.5l19.7,28.5h52.8L212.3,9.3z"/>
	<polygon class="st2" points="422.9,20.7 493.3,20.7 493.3,0.9 396.5,0.9 396.5,52.8 422.9,52.8 422.9,52.7 493.4,52.7 493.4,35.5 
		422.9,35.5 	"/>
	<rect x="396.5" y="67.1" class="st0" width="97.2" height="19.1"/>
</g>
</svg>
